<!DOCTYPE svg PUBLIC "-//W3C//DTD SVG 20010904//EN" "http://www.w3.org/TR/2001/REC-SVG-20010904/DTD/svg10.dtd">
<svg version="1.0" xmlns="http://www.w3.org/2000/svg" width="299px" height="281px" viewBox="0 0 2990 2810" preserveAspectRatio="xMidYMid meet">
<g id="layer101" fill="#101010" stroke="none">
 <path d="M1245 2715 c-337 -61 -637 -244 -841 -514 -93 -122 -186 -316 -225 -466 -28 -106 -32 -141 -36 -295 -7 -257 28 -425 133 -634 135 -267 340 -469 609 -601 202 -99 358 -134 585 -135 154 0 283 20 419 66 451 151 782 523 886 997 25 113 30 361 11 482 -80 487 -429 894 -897 1049 -57 19 -146 41 -198 50 -113 19 -345 20 -446 1z"/>
 </g>
<g id="layer102" fill="#be2b24" stroke="none">
 <path d="M1032 2605 c-146 -56 -307 -152 -412 -244 l-45 -40 111 -112 112 -112 61 51 c71 60 166 114 262 152 38 14 72 29 75 33 4 3 -11 72 -32 152 -28 108 -42 145 -54 145 -8 -1 -43 -12 -78 -25z"/>
 <path d="M1776 2485 c-21 -80 -36 -149 -32 -152 3 -4 37 -19 75 -33 96 -38 191 -92 262 -152 l61 -51 109 109 c60 60 109 112 109 116 0 18 -188 154 -281 203 -104 54 -227 105 -252 105 -8 0 -27 -55 -51 -145z"/>
 <path d="M1313 2305 c-653 -118 -974 -864 -609 -1413 87 -132 239 -261 381 -327 135 -62 222 -79 390 -79 132 1 160 4 236 27 169 51 271 110 393 226 127 122 216 276 257 447 31 124 31 326 1 436 -69 256 -234 464 -464 587 -180 97 -391 131 -585 96z"/>
 <path d="M225 1702 c-15 -40 -35 -209 -35 -302 0 -93 20 -262 35 -302 5 -12 32 -7 156 26 149 40 150 40 145 66 -3 14 -10 67 -17 117 -11 87 -4 205 17 303 5 26 4 26 -145 66 -124 33 -151 38 -156 26z"/>
 <path d="M2557 1676 c-147 -39 -149 -40 -143 -65 21 -100 28 -217 17 -304 -7 -50 -14 -103 -17 -117 -5 -26 -4 -26 145 -66 l151 -41 9 36 c18 66 31 191 31 284 0 93 -23 278 -37 300 -6 10 -45 3 -156 -27z"/>
 <path d="M685 590 l-110 -110 45 -40 c63 -56 192 -142 278 -185 78 -39 195 -85 215 -85 14 0 94 286 84 296 -3 4 -42 21 -86 39 -95 38 -171 83 -252 148 -32 26 -60 47 -62 47 -1 0 -52 -50 -112 -110z"/>
 <path d="M2078 652 c-76 -63 -153 -109 -249 -147 -44 -18 -83 -35 -86 -39 -10 -10 70 -296 84 -296 25 0 147 51 242 101 95 49 166 98 252 172 l43 37 -109 110 c-60 61 -112 110 -115 109 -3 0 -30 -22 -62 -47z"/>
 </g>
<g id="layer103" fill="#fefefe" stroke="none">
 <path d="M1032 2605 c-146 -56 -307 -152 -412 -244 l-45 -40 111 -112 112 -112 61 51 c71 60 166 114 262 152 38 14 72 29 75 33 4 3 -11 72 -32 152 -28 108 -42 145 -54 145 -8 -1 -43 -12 -78 -25z"/>
 <path d="M1776 2485 c-21 -80 -36 -149 -32 -152 3 -4 37 -19 75 -33 96 -38 191 -92 262 -152 l61 -51 109 109 c60 60 109 112 109 116 0 18 -188 154 -281 203 -104 54 -227 105 -252 105 -8 0 -27 -55 -51 -145z"/>
 <path d="M1313 2305 c-653 -118 -974 -864 -609 -1413 87 -132 239 -261 381 -327 135 -62 222 -79 390 -79 132 1 160 4 236 27 169 51 271 110 393 226 127 122 216 276 257 447 31 124 31 326 1 436 -69 256 -234 464 -464 587 -180 97 -391 131 -585 96z m374 -210 c1 -5 -22 -23 -53 -39 -63 -33 -114 -94 -138 -163 -8 -24 -13 -43 -11 -43 2 0 27 15 56 32 44 28 64 33 126 36 64 4 80 1 128 -23 105 -51 163 -154 152 -266 -12 -110 -81 -254 -194 -406 -30 -40 -59 -75 -63 -78 -5 -3 0 20 10 51 29 82 43 178 35 230 -9 65 -55 114 -105 114 -23 0 -48 -8 -65 -21 -24 -19 -26 -27 -22 -68 3 -25 15 -77 26 -116 28 -89 31 -239 7 -341 -20 -85 -73 -178 -139 -245 -56 -57 -94 -82 -83 -54 14 38 19 224 7 287 -22 111 -53 159 -201 314 -91 96 -149 166 -170 206 -82 154 -32 326 115 394 83 39 212 27 270 -25 40 -36 45 -34 30 10 -30 85 -92 156 -162 185 -18 8 -33 21 -33 29 0 13 31 15 237 13 146 -2 238 -7 240 -13z m309 -511 c13 -88 -32 -213 -118 -330 -52 -70 -166 -194 -179 -194 -5 0 41 74 100 165 113 170 171 297 171 371 0 50 18 42 26 -12z m-1005 -151 c24 -32 75 -92 114 -133 90 -95 124 -139 168 -220 46 -85 58 -134 58 -235 0 -83 -17 -175 -31 -175 -4 0 -10 33 -13 73 -8 92 -38 210 -73 282 -14 32 -66 110 -114 175 -49 65 -96 133 -105 151 -20 37 -56 139 -50 139 3 0 23 -26 46 -57z"/>
 <path d="M225 1702 c-15 -40 -35 -209 -35 -302 0 -93 20 -262 35 -302 5 -12 32 -7 156 26 149 40 150 40 145 66 -3 14 -10 67 -17 117 -11 87 -4 205 17 303 5 26 4 26 -145 66 -124 33 -151 38 -156 26z"/>
 <path d="M2557 1676 c-147 -39 -149 -40 -143 -65 21 -100 28 -217 17 -304 -7 -50 -14 -103 -17 -117 -5 -26 -4 -26 145 -66 l151 -41 9 36 c18 66 31 191 31 284 0 93 -23 278 -37 300 -6 10 -45 3 -156 -27z"/>
 <path d="M685 590 l-110 -110 45 -40 c63 -56 192 -142 278 -185 78 -39 195 -85 215 -85 14 0 94 286 84 296 -3 4 -42 21 -86 39 -95 38 -171 83 -252 148 -32 26 -60 47 -62 47 -1 0 -52 -50 -112 -110z"/>
 <path d="M2078 652 c-76 -63 -153 -109 -249 -147 -44 -18 -83 -35 -86 -39 -10 -10 70 -296 84 -296 25 0 147 51 242 101 95 49 166 98 252 172 l43 37 -109 110 c-60 61 -112 110 -115 109 -3 0 -30 -22 -62 -47z"/>
 </g>

</svg>