<!DOCTYPE svg PUBLIC "-//W3C//DTD SVG 20010904//EN" "http://www.w3.org/TR/2001/REC-SVG-20010904/DTD/svg10.dtd">
<svg version="1.0" xmlns="http://www.w3.org/2000/svg" width="651px" height="281px" viewBox="0 0 6510 2810" preserveAspectRatio="xMidYMid meet">
<g id="layer101" fill="#101010" stroke="none">
 <path d="M1405 2715 c-337 -61 -637 -244 -841 -514 -93 -122 -186 -316 -225 -466 -28 -106 -32 -141 -36 -295 -7 -257 28 -425 133 -634 135 -267 340 -469 609 -601 202 -99 358 -134 585 -135 154 0 283 20 419 66 451 151 782 523 886 997 25 113 30 361 11 482 -80 487 -429 894 -897 1049 -57 19 -146 41 -198 50 -113 19 -345 20 -446 1z"/>
 <path d="M3870 1965 l0 -85 80 0 c91 0 100 7 100 82 0 87 -2 88 -96 88 l-84 0 0 -85z m150 0 l0 -66 -62 3 -63 3 -3 49 c-5 72 -1 76 68 76 l60 0 0 -65z"/>
 <path d="M4090 1965 l0 -85 80 0 c47 0 80 4 80 10 0 6 -30 10 -70 10 -68 0 -70 1 -70 25 0 24 3 25 55 25 30 0 55 5 55 10 0 6 -25 10 -55 10 -54 0 -55 0 -55 30 l0 30 70 0 c40 0 70 4 70 10 0 6 -33 10 -80 10 l-80 0 0 -85z"/>
 <path d="M4339 1973 c-55 -95 -54 -93 -35 -93 8 0 31 31 53 70 21 38 40 70 43 70 3 0 22 -32 43 -70 22 -39 45 -70 53 -70 19 0 20 -2 -35 93 -27 47 -51 77 -61 77 -10 0 -34 -30 -61 -77z"/>
 <path d="M4550 1965 l0 -85 85 0 c50 0 85 4 85 10 0 6 -30 10 -70 10 -68 0 -70 1 -70 25 0 24 3 25 55 25 30 0 55 5 55 10 0 6 -25 10 -55 10 -54 0 -55 0 -55 30 l0 30 70 0 c40 0 70 4 70 10 0 6 -35 10 -85 10 l-85 0 0 -85z"/>
 <path d="M4760 1965 c0 -50 4 -85 10 -85 6 0 10 32 10 75 l0 75 75 0 c43 0 75 4 75 10 0 6 -35 10 -85 10 l-85 0 0 -85z"/>
 <path d="M4966 2035 c-9 -24 -7 -128 3 -143 5 -9 30 -12 87 -10 l79 3 0 80 0 80 -81 3 c-68 2 -83 0 -88 -13z m144 -70 l0 -65 -60 0 -60 0 0 65 0 65 60 0 60 0 0 -65z"/>
 <path d="M5180 1965 l0 -86 88 3 87 3 0 50 0 50 -72 3 -73 3 0 29 c0 20 -5 30 -15 30 -12 0 -15 -16 -15 -85z m150 -30 l0 -35 -60 0 -60 0 0 35 0 35 60 0 60 0 0 -35z"/>
 <path d="M5390 1965 l0 -85 85 0 c50 0 85 4 85 10 0 6 -30 10 -70 10 -68 0 -70 1 -70 25 0 24 3 25 55 25 30 0 55 5 55 10 0 6 -25 10 -55 10 -54 0 -55 0 -55 30 l0 30 70 0 c40 0 70 4 70 10 0 6 -35 10 -85 10 l-85 0 0 -85z"/>
 <path d="M5600 1965 l0 -86 83 3 82 3 3 48 c3 40 0 48 -18 55 l-21 8 21 27 c20 26 20 27 3 27 -11 0 -29 -13 -41 -30 -18 -23 -30 -30 -57 -30 -32 0 -35 2 -35 30 0 17 -4 30 -10 30 -6 0 -10 -35 -10 -85z m145 -30 c0 -30 0 -30 -60 -30 -50 0 -60 3 -63 18 -8 39 5 48 65 45 57 -3 58 -3 58 -33z"/>
 <path d="M3327 1959 c5 -34 2 -44 -22 -68 l-27 -29 41 -7 c34 -6 45 -13 59 -41 l18 -35 16 35 c14 28 24 35 58 41 l42 7 -27 29 c-24 24 -27 34 -22 68 l5 40 -36 -18 c-36 -18 -38 -18 -73 0 l-37 18 5 -40z"/>
 <path d="M6207 1959 c5 -34 2 -44 -22 -68 l-27 -29 41 -7 c34 -6 45 -13 59 -41 l18 -35 16 35 c14 28 24 35 58 41 l42 7 -27 29 c-24 24 -27 34 -22 68 l5 40 -36 -18 c-36 -18 -38 -18 -73 0 l-37 18 5 -40z"/>
 <path d="M4250 1675 c-186 -60 -235 -328 -83 -454 108 -90 298 -73 374 32 39 54 38 67 -9 67 -31 0 -43 -6 -61 -31 -65 -88 -224 -75 -289 24 -23 34 -27 51 -27 112 0 61 4 77 28 113 66 100 223 111 290 20 16 -22 29 -28 59 -28 47 0 48 13 9 67 -55 76 -188 112 -291 78z"/>
 <path d="M3410 1425 l0 -255 39 0 38 0 124 187 124 186 3 -186 2 -187 40 0 40 0 0 255 0 255 -38 0 -39 0 -131 -197 -132 -198 0 198 0 197 -35 0 -35 0 0 -255z"/>
 <path d="M3920 1425 l0 -255 40 0 40 0 0 255 0 255 -40 0 -40 0 0 -255z"/>
 <path d="M4670 1425 l0 -255 40 0 39 0 3 109 3 110 95 -109 95 -109 49 0 c46 -1 48 0 35 18 -8 11 -60 69 -117 130 l-103 110 118 123 118 123 -48 3 c-53 3 -33 20 -210 -173 l-36 -40 -1 108 0 107 -40 0 -40 0 0 -255z"/>
 <path d="M5340 1425 l0 -255 35 0 35 0 0 225 0 225 90 0 90 0 0 30 0 30 -125 0 -125 0 0 -255z"/>
 <path d="M5650 1425 l0 -255 40 0 40 0 0 255 0 255 -40 0 -40 0 0 -255z"/>
 <path d="M5830 1425 l0 -255 39 0 38 0 124 187 124 186 3 -186 2 -187 40 0 40 0 0 255 0 255 -38 0 -39 0 -131 -197 -132 -198 0 198 0 197 -35 0 -35 0 0 -255z"/>
 </g>
<g id="layer102" fill="#c22c25" stroke="none">
 <path d="M1498 2723 c18 -2 45 -2 60 0 15 2 0 4 -33 4 -33 0 -45 -2 -27 -4z"/>
 <path d="M1703 2723 c15 -2 39 -2 55 0 15 2 2 4 -28 4 -30 0 -43 -2 -27 -4z"/>
 <path d="M1975 2680 c11 -5 27 -9 35 -9 9 0 8 4 -5 9 -11 5 -27 9 -35 9 -9 0 -8 -4 5 -9z"/>
 <path d="M1192 2663 c-24 -8 -41 -17 -39 -19 2 -2 28 5 58 15 30 11 47 20 39 19 -8 0 -34 -6 -58 -15z"/>
 <path d="M1090 2620 c-19 -11 -30 -19 -25 -19 6 0 26 8 45 19 19 11 31 19 25 19 -5 0 -26 -8 -45 -19z"/>
 <path d="M1189 2606 c-159 -63 -306 -150 -407 -241 l-53 -48 112 -113 112 -112 75 60 c76 60 196 127 287 158 28 10 50 22 49 26 -4 32 -78 304 -83 304 -3 -1 -45 -16 -92 -34z"/>
 <path d="M1935 2493 c-21 -82 -38 -152 -39 -157 -1 -4 22 -16 49 -26 91 -31 211 -98 287 -158 l75 -60 112 112 111 112 -37 36 c-102 98 -270 198 -432 258 -45 16 -84 30 -85 30 -2 0 -20 -66 -41 -147z"/>
 <path d="M2141 2626 c10 -9 169 -86 169 -81 0 5 -156 85 -166 85 -4 0 -5 -2 -3 -4z"/>
 <path d="M2320 2537 c0 -2 19 -17 43 -32 23 -16 37 -22 30 -14 -12 15 -73 53 -73 46z"/>
 <path d="M805 2447 c-128 -102 -253 -244 -326 -372 -34 -60 -18 -40 50 62 75 112 186 232 286 308 67 51 82 65 72 65 -1 0 -38 -28 -82 -63z"/>
 <path d="M2435 2455 c17 -14 58 -51 91 -80 54 -47 109 -110 202 -230 13 -17 20 -23 16 -15 -34 68 -187 237 -276 304 -34 26 -49 36 -33 21z"/>
 <path d="M1451 2305 c-295 -67 -517 -238 -650 -502 -82 -163 -113 -402 -77 -583 46 -223 174 -425 358 -561 90 -67 170 -106 294 -146 83 -26 101 -28 254 -28 154 0 171 2 255 29 162 51 286 125 396 237 185 187 278 430 266 694 -7 143 -30 233 -92 360 -116 234 -341 420 -590 486 -105 28 -321 35 -414 14z"/>
 <path d="M2812 1995 c23 -46 44 -83 46 -81 4 5 -76 166 -83 166 -3 0 14 -38 37 -85z"/>
 <path d="M3870 1965 l0 -85 80 0 c91 0 100 7 100 82 0 87 -2 88 -96 88 l-84 0 0 -85z m150 0 l0 -66 -62 3 -63 3 -3 49 c-5 72 -1 76 68 76 l60 0 0 -65z"/>
 <path d="M4090 1965 l0 -85 80 0 c47 0 80 4 80 10 0 6 -30 10 -70 10 -68 0 -70 1 -70 25 0 24 3 25 55 25 30 0 55 5 55 10 0 6 -25 10 -55 10 -54 0 -55 0 -55 30 l0 30 70 0 c40 0 70 4 70 10 0 6 -33 10 -80 10 l-80 0 0 -85z"/>
 <path d="M4339 1973 c-55 -95 -54 -93 -35 -93 8 0 31 31 53 70 21 38 40 70 43 70 3 0 22 -32 43 -70 22 -39 45 -70 53 -70 19 0 20 -2 -35 93 -27 47 -51 77 -61 77 -10 0 -34 -30 -61 -77z"/>
 <path d="M4550 1965 l0 -85 85 0 c50 0 85 4 85 10 0 6 -30 10 -70 10 -68 0 -70 1 -70 25 0 24 3 25 55 25 30 0 55 5 55 10 0 6 -25 10 -55 10 -54 0 -55 0 -55 30 l0 30 70 0 c40 0 70 4 70 10 0 6 -35 10 -85 10 l-85 0 0 -85z"/>
 <path d="M4760 1965 c0 -50 4 -85 10 -85 6 0 10 32 10 75 l0 75 75 0 c43 0 75 4 75 10 0 6 -35 10 -85 10 l-85 0 0 -85z"/>
 <path d="M4966 2035 c-9 -24 -7 -128 3 -143 5 -9 30 -12 87 -10 l79 3 0 80 0 80 -81 3 c-68 2 -83 0 -88 -13z m144 -70 l0 -65 -60 0 -60 0 0 65 0 65 60 0 60 0 0 -65z"/>
 <path d="M5180 1965 l0 -86 88 3 87 3 0 50 0 50 -72 3 -73 3 0 29 c0 20 -5 30 -15 30 -12 0 -15 -16 -15 -85z m150 -30 l0 -35 -60 0 -60 0 0 35 0 35 60 0 60 0 0 -35z"/>
 <path d="M5390 1965 l0 -85 85 0 c50 0 85 4 85 10 0 6 -30 10 -70 10 -68 0 -70 1 -70 25 0 24 3 25 55 25 30 0 55 5 55 10 0 6 -25 10 -55 10 -54 0 -55 0 -55 30 l0 30 70 0 c40 0 70 4 70 10 0 6 -35 10 -85 10 l-85 0 0 -85z"/>
 <path d="M5600 1965 l0 -86 83 3 82 3 3 48 c3 40 0 48 -18 55 l-21 8 21 27 c20 26 20 27 3 27 -11 0 -29 -13 -41 -30 -18 -23 -30 -30 -57 -30 -32 0 -35 2 -35 30 0 17 -4 30 -10 30 -6 0 -10 -35 -10 -85z m145 -30 c0 -30 0 -30 -60 -30 -50 0 -60 3 -63 18 -8 39 5 48 65 45 57 -3 58 -3 58 -33z"/>
 <path d="M3327 1959 c5 -34 2 -44 -22 -68 l-27 -29 41 -7 c34 -6 45 -13 59 -41 l18 -35 16 35 c14 28 24 35 58 41 l42 7 -27 29 c-24 24 -27 34 -22 68 l5 40 -36 -18 c-36 -18 -38 -18 -73 0 l-37 18 5 -40z"/>
 <path d="M6207 1959 c5 -34 2 -44 -22 -68 l-27 -29 41 -7 c34 -6 45 -13 59 -41 l18 -35 16 35 c14 28 24 35 58 41 l42 7 -27 29 c-24 24 -27 34 -22 68 l5 40 -36 -18 c-36 -18 -38 -18 -73 0 l-37 18 5 -40z"/>
 <path d="M402 1925 c-17 -37 -14 -45 4 -12 9 16 14 31 11 33 -2 2 -9 -7 -15 -21z"/>
 <path d="M366 1834 c-9 -26 -16 -52 -15 -58 0 -6 9 13 20 43 10 30 17 56 15 58 -2 2 -11 -17 -20 -43z"/>
 <path d="M2901 1780 c0 -8 4 -24 9 -35 5 -13 9 -14 9 -5 0 8 -4 24 -9 35 -5 13 -9 14 -9 5z"/>
 <path d="M370 1653 c-18 -94 -26 -235 -19 -345 6 -96 28 -228 38 -228 13 1 294 80 298 84 3 3 0 34 -6 69 -14 82 -14 252 0 334 6 35 9 66 6 69 -4 4 -285 83 -298 84 -3 0 -11 -30 -19 -67z"/>
 <path d="M2716 1679 c-76 -21 -141 -40 -143 -43 -3 -3 0 -34 6 -69 6 -35 11 -110 11 -167 0 -57 -5 -132 -11 -167 -6 -35 -9 -66 -6 -69 6 -6 298 -86 302 -82 14 16 35 207 35 317 0 142 -25 322 -44 320 -6 0 -73 -18 -150 -40z"/>
 <path d="M4313 1683 c15 -2 39 -2 55 0 15 2 2 4 -28 4 -30 0 -43 -2 -27 -4z"/>
 <path d="M3414 1425 c0 -143 2 -200 3 -127 2 73 2 190 0 260 -1 70 -3 10 -3 -133z"/>
 <path d="M3628 1508 c-131 -198 -156 -237 -141 -223 6 6 64 91 130 190 133 201 136 205 130 205 -2 0 -56 -78 -119 -172z"/>
 <path d="M3814 1425 c0 -143 2 -200 3 -127 2 73 2 190 0 260 -1 70 -3 10 -3 -133z"/>
 <path d="M3924 1425 c0 -143 2 -200 3 -127 2 73 2 190 0 260 -1 70 -3 10 -3 -133z"/>
 <path d="M3994 1425 c0 -143 2 -200 3 -127 2 73 2 190 0 260 -1 70 -3 10 -3 -133z"/>
 <path d="M4674 1425 c0 -143 2 -200 3 -127 2 73 2 190 0 260 -1 70 -3 10 -3 -133z"/>
 <path d="M4742 1565 l-1 -120 84 90 c47 50 95 104 107 120 21 29 -75 -71 -143 -149 l-34 -39 -6 109 -5 109 -2 -120z"/>
 <path d="M4917 1553 l-118 -125 53 -56 c29 -32 85 -91 123 -132 39 -41 63 -65 55 -53 -8 12 -61 71 -118 132 l-103 110 116 120 c98 102 126 134 113 130 -2 0 -56 -57 -121 -126z"/>
 <path d="M5580 1655 c0 -25 -1 -25 -90 -25 l-90 0 2 -232 3 -233 2 228 3 227 90 0 90 0 0 30 c0 17 -2 30 -5 30 -3 0 -5 -11 -5 -25z"/>
 <path d="M5654 1425 c0 -143 2 -200 3 -127 2 73 2 190 0 260 -1 70 -3 10 -3 -133z"/>
 <path d="M5724 1425 c0 -143 2 -200 3 -127 2 73 2 190 0 260 -1 70 -3 10 -3 -133z"/>
 <path d="M5834 1425 c0 -143 2 -200 3 -127 2 73 2 190 0 260 -1 70 -3 10 -3 -133z"/>
 <path d="M6048 1508 c-131 -198 -156 -237 -141 -223 6 6 64 91 130 190 133 201 136 205 130 205 -2 0 -56 -78 -119 -172z"/>
 <path d="M6234 1425 c0 -143 2 -200 3 -127 2 73 2 190 0 260 -1 70 -3 10 -3 -133z"/>
 <path d="M4179 1638 c-23 -18 -49 -44 -57 -58 -11 -20 -9 -19 9 4 12 16 43 42 68 57 25 16 40 29 34 29 -6 0 -30 -15 -54 -32z"/>
 <path d="M4470 1649 c19 -12 43 -28 53 -37 9 -8 17 -12 17 -9 0 10 -81 67 -94 67 -6 0 5 -10 24 -21z"/>
 <path d="M312 1600 c0 -19 2 -27 5 -17 2 9 2 25 0 35 -3 9 -5 1 -5 -18z"/>
 <path d="M4313 1623 c15 -2 37 -2 50 0 12 2 0 4 -28 4 -27 0 -38 -2 -22 -4z"/>
 <path d="M4230 1598 c-18 -13 -40 -34 -48 -48 -12 -19 -9 -18 14 7 16 17 43 38 59 47 17 8 25 15 19 16 -6 0 -26 -10 -44 -22z"/>
 <path d="M4460 1570 c36 -36 46 -41 78 -37 l37 4 -39 1 c-28 2 -44 9 -58 27 -11 14 -29 30 -40 36 -11 6 -1 -8 22 -31z"/>
 <path d="M3628 1398 c-150 -226 -151 -228 -146 -228 3 0 61 84 129 187 l124 186 5 -189 6 -189 2 203 c1 111 0 202 -1 202 -2 0 -56 -78 -119 -172z"/>
 <path d="M6048 1398 c-150 -226 -151 -228 -146 -228 3 0 61 84 129 187 l124 186 5 -189 6 -189 2 203 c1 111 0 202 -1 202 -2 0 -56 -78 -119 -172z"/>
 <path d="M303 1510 c0 -30 2 -43 4 -27 2 15 2 39 0 55 -2 15 -4 2 -4 -28z"/>
 <path d="M2953 1505 c0 -27 2 -38 4 -22 2 15 2 37 0 50 -2 12 -4 0 -4 -28z"/>
 <path d="M4742 1290 l2 -125 5 112 6 112 98 -110 c53 -61 97 -107 97 -104 0 6 -131 156 -191 220 -19 19 -19 17 -17 -105z"/>
 <path d="M2953 1325 c0 -33 2 -45 4 -27 2 18 2 45 0 60 -2 15 -4 0 -4 -33z"/>
 <path d="M4080 1364 c0 -10 5 -26 10 -34 8 -11 9 -7 4 15 -8 37 -14 45 -14 19z"/>
 <path d="M4179 1303 c14 -26 79 -73 101 -73 8 1 0 7 -18 15 -19 8 -48 29 -64 47 -21 23 -27 26 -19 11z"/>
 <path d="M4467 1282 l-29 -37 30 32 c22 22 42 33 69 36 l38 4 -40 1 c-35 2 -43 -2 -68 -36z"/>
 <path d="M303 1270 c0 -25 2 -35 4 -22 2 12 2 32 0 45 -2 12 -4 2 -4 -23z"/>
 <path d="M4122 1270 c17 -28 93 -90 111 -90 6 0 -9 13 -34 29 -25 15 -56 41 -68 57 -18 23 -20 24 -9 4z"/>
 <path d="M2942 1220 c0 -19 2 -27 5 -17 2 9 2 25 0 35 -3 9 -5 1 -5 -18z"/>
 <path d="M4486 1214 c-26 -19 -44 -34 -39 -34 11 0 93 57 93 65 0 7 2 8 -54 -31z"/>
 <path d="M4318 1223 c12 -2 32 -2 45 0 12 2 2 4 -23 4 -25 0 -35 -2 -22 -4z"/>
 <path d="M4313 1163 c15 -2 39 -2 55 0 15 2 2 4 -28 4 -30 0 -43 -2 -27 -4z"/>
 <path d="M2882 973 c-15 -48 -8 -55 8 -8 7 20 10 38 8 41 -3 2 -10 -13 -16 -33z"/>
 <path d="M2812 805 c-17 -36 -30 -65 -27 -65 7 0 67 121 63 126 -2 2 -18 -26 -36 -61z"/>
 <path d="M475 730 c9 -16 18 -30 21 -30 2 0 -2 14 -11 30 -9 17 -18 30 -21 30 -2 0 2 -13 11 -30z"/>
 <path d="M841 596 l-113 -113 64 -55 c111 -98 268 -188 417 -242 41 -15 75 -25 76 -24 9 9 82 309 77 312 -4 2 -25 9 -47 16 -91 29 -223 104 -316 181 l-45 38 -113 -113z"/>
 <path d="M2270 678 c-85 -73 -234 -159 -325 -188 -22 -7 -43 -14 -47 -16 -5 -3 68 -303 77 -312 5 -5 152 52 220 85 94 47 218 130 283 190 l53 48 -113 112 -113 112 -35 -31z"/>
 <path d="M551 615 c18 -25 40 -51 48 -58 8 -7 -5 14 -28 46 -51 68 -67 77 -20 12z"/>
 <path d="M2675 588 c-26 -35 -39 -55 -28 -45 20 18 87 107 80 107 -2 0 -25 -28 -52 -62z"/>
 <path d="M675 471 c73 -76 205 -181 278 -221 60 -33 45 -21 -61 50 -52 35 -137 103 -190 153 -87 81 -90 83 -27 18z"/>
 <path d="M2560 457 c-36 -34 -85 -79 -110 -100 -34 -29 -30 -27 15 7 54 41 176 156 165 156 -3 0 -34 -28 -70 -63z"/>
 <path d="M2362 296 c-46 -33 -53 -43 -14 -20 19 10 38 25 44 32 15 17 8 14 -30 -12z"/>
 <path d="M2180 195 c-25 -13 -40 -24 -35 -24 6 0 30 11 55 24 25 13 41 24 35 24 -5 0 -30 -11 -55 -24z"/>
 <path d="M1080 185 c25 -13 50 -24 55 -24 6 0 -10 11 -35 24 -25 13 -49 24 -55 24 -5 0 10 -11 35 -24z"/>
 <path d="M1975 120 c-13 -5 -14 -9 -5 -9 8 0 24 4 35 9 13 5 14 9 5 9 -8 0 -24 -4 -35 -9z"/>
 <path d="M1413 83 c9 -2 25 -2 35 0 9 3 1 5 -18 5 -19 0 -27 -2 -17 -5z"/>
 <path d="M1503 73 c15 -2 39 -2 55 0 15 2 2 4 -28 4 -30 0 -43 -2 -27 -4z"/>
 <path d="M1703 73 c15 -2 39 -2 55 0 15 2 2 4 -28 4 -30 0 -43 -2 -27 -4z"/>
 </g>
<g id="layer103" fill="#5d5d5d" stroke="none">
 <path d="M1498 2723 c18 -2 45 -2 60 0 15 2 0 4 -33 4 -33 0 -45 -2 -27 -4z"/>
 <path d="M1703 2723 c15 -2 39 -2 55 0 15 2 2 4 -28 4 -30 0 -43 -2 -27 -4z"/>
 <path d="M1975 2680 c11 -5 27 -9 35 -9 9 0 8 4 -5 9 -11 5 -27 9 -35 9 -9 0 -8 -4 5 -9z"/>
 <path d="M1192 2663 c-24 -8 -41 -17 -39 -19 2 -2 28 5 58 15 30 11 47 20 39 19 -8 0 -34 -6 -58 -15z"/>
 <path d="M1090 2620 c-19 -11 -30 -19 -25 -19 6 0 26 8 45 19 19 11 31 19 25 19 -5 0 -26 -8 -45 -19z"/>
 <path d="M1189 2606 c-159 -63 -306 -150 -407 -241 l-53 -48 112 -113 112 -112 75 60 c76 60 196 127 287 158 28 10 50 22 49 26 -4 32 -78 304 -83 304 -3 -1 -45 -16 -92 -34z"/>
 <path d="M1935 2493 c-21 -82 -38 -152 -39 -157 -1 -4 22 -16 49 -26 91 -31 211 -98 287 -158 l75 -60 112 112 111 112 -37 36 c-102 98 -270 198 -432 258 -45 16 -84 30 -85 30 -2 0 -20 -66 -41 -147z"/>
 <path d="M2141 2626 c10 -9 169 -86 169 -81 0 5 -156 85 -166 85 -4 0 -5 -2 -3 -4z"/>
 <path d="M2320 2537 c0 -2 19 -17 43 -32 23 -16 37 -22 30 -14 -12 15 -73 53 -73 46z"/>
 <path d="M805 2447 c-128 -102 -253 -244 -326 -372 -34 -60 -18 -40 50 62 75 112 186 232 286 308 67 51 82 65 72 65 -1 0 -38 -28 -82 -63z"/>
 <path d="M2435 2455 c17 -14 58 -51 91 -80 54 -47 109 -110 202 -230 13 -17 20 -23 16 -15 -34 68 -187 237 -276 304 -34 26 -49 36 -33 21z"/>
 <path d="M1451 2305 c-295 -67 -517 -238 -650 -502 -82 -163 -113 -402 -77 -583 46 -223 174 -425 358 -561 90 -67 170 -106 294 -146 83 -26 101 -28 254 -28 154 0 171 2 255 29 162 51 286 125 396 237 185 187 278 430 266 694 -7 143 -30 233 -92 360 -116 234 -341 420 -590 486 -105 28 -321 35 -414 14z m396 -210 c1 -5 -22 -23 -52 -39 -31 -16 -69 -46 -85 -67 -33 -41 -75 -127 -66 -136 2 -3 18 4 35 16 165 117 390 26 423 -172 9 -57 8 -73 -10 -134 -23 -73 -56 -147 -99 -223 -24 -42 -142 -200 -149 -200 -1 0 8 30 22 68 66 180 32 332 -74 332 -60 0 -92 -30 -92 -86 0 -24 7 -61 15 -81 26 -66 44 -212 35 -283 -9 -80 -44 -197 -65 -220 -8 -9 -15 -20 -15 -24 0 -13 -72 -96 -109 -125 l-36 -29 0 162 0 161 -39 80 c-31 65 -54 95 -121 160 -119 113 -211 229 -235 292 -54 143 5 291 140 352 88 40 213 21 277 -41 41 -40 42 -23 4 57 -30 65 -96 132 -148 154 -33 13 -39 22 -26 35 11 11 466 2 470 -9z m309 -510 c3 -25 4 -60 0 -78 -19 -98 -111 -252 -220 -372 -70 -76 -95 -84 -44 -14 52 71 138 202 138 209 0 3 11 22 25 41 29 38 75 178 75 227 0 48 18 39 26 -13z m-987 -179 c18 -22 63 -72 100 -111 87 -92 141 -166 180 -248 39 -82 52 -208 31 -306 -15 -70 -30 -71 -30 -3 -1 26 -8 76 -16 112 -9 36 -18 77 -21 93 -3 15 -9 30 -14 33 -5 3 -9 13 -9 23 0 20 -59 110 -153 235 -63 83 -112 171 -122 221 -5 27 -4 28 7 11 7 -10 28 -37 47 -60z"/>
 <path d="M2812 1995 c23 -46 44 -83 46 -81 4 5 -76 166 -83 166 -3 0 14 -38 37 -85z"/>
 <path d="M3874 1965 c0 -49 1 -71 3 -48 2 23 2 64 0 90 -2 26 -3 8 -3 -42z"/>
 <path d="M3960 2043 c-30 -2 -58 -7 -62 -11 -4 -4 22 -5 57 -4 49 3 65 0 65 -10 0 -10 3 -9 10 2 13 21 12 30 -2 28 -7 -1 -38 -3 -68 -5z"/>
 <path d="M4094 1965 c0 -49 1 -71 3 -48 2 23 2 64 0 90 -2 26 -3 8 -3 -42z"/>
 <path d="M4175 2040 l-70 -6 73 -2 c42 -1 72 2 72 8 0 6 -1 9 -2 8 -2 -1 -34 -4 -73 -8z"/>
 <path d="M4339 1972 c-24 -41 -45 -79 -47 -83 -7 -16 31 -2 40 16 8 13 8 16 -2 10 -8 -5 -11 -3 -8 6 3 8 11 13 18 11 8 -2 10 3 6 13 -3 9 -2 13 4 10 10 -6 44 51 36 63 -2 4 4 8 14 8 11 0 16 -6 13 -14 -3 -7 0 -12 7 -10 7 2 15 -3 18 -11 3 -9 0 -11 -8 -6 -7 4 -5 -6 6 -24 10 -17 20 -27 22 -21 2 5 9 7 15 3 10 -6 -20 48 -47 87 -23 32 -44 18 -87 -58z"/>
 <path d="M4554 1965 c0 -49 1 -71 3 -48 2 23 2 64 0 90 -2 26 -3 8 -3 -42z"/>
 <path d="M4643 2043 l-73 -4 2 -37 c1 -37 1 -37 5 -4 l4 32 70 0 c39 0 69 4 69 10 0 6 -1 9 -2 8 -2 -1 -36 -4 -75 -5z"/>
 <path d="M4764 1965 c0 -49 1 -71 3 -48 2 23 2 64 0 90 -2 26 -3 8 -3 -42z"/>
 <path d="M4964 2024 c-3 -11 -3 -45 -1 -75 3 -54 3 -53 5 13 1 37 5 69 10 71 9 6 10 -136 0 -143 -3 -3 31 -4 75 -4 61 1 82 5 83 15 1 10 0 10 -3 2 -11 -32 -18 -7 -18 62 0 69 7 94 18 63 3 -9 4 -9 3 1 -1 10 -22 14 -84 15 -76 1 -83 -1 -88 -20z m146 -59 l0 -65 -60 0 -60 0 0 65 0 65 60 0 60 0 0 -65z"/>
 <path d="M5394 1965 c0 -49 1 -71 3 -48 2 23 2 64 0 90 -2 26 -3 8 -3 -42z"/>
 <path d="M5483 2043 l-73 -4 2 -37 c1 -37 1 -37 5 -4 l4 32 70 0 c39 0 69 4 69 10 0 6 -1 9 -2 8 -2 -1 -36 -4 -75 -5z"/>
 <path d="M5601 1963 c1 -49 3 -80 6 -70 3 12 8 15 16 9 7 -6 41 -12 76 -14 l65 -3 1 49 c0 38 -3 50 -18 55 -17 7 -17 8 2 33 19 24 19 25 2 24 -11 0 -29 -13 -41 -28 -16 -21 -30 -28 -56 -28 -31 0 -34 3 -34 30 0 17 -4 30 -10 30 -6 0 -10 -35 -9 -87z m131 54 c-24 -26 -20 -37 12 -37 12 0 17 -4 11 -8 -5 -4 -10 -20 -10 -37 l0 -30 -60 0 -60 0 0 32 c0 17 -3 29 -7 26 -5 -2 -8 2 -8 9 0 10 11 12 38 10 31 -3 42 2 66 27 17 17 32 31 35 31 2 0 -5 -10 -17 -23z"/>
 <path d="M4818 2033 c23 -2 59 -2 80 0 20 2 1 4 -43 4 -44 0 -61 -2 -37 -4z"/>
 <path d="M4042 1967 c-1 -42 -5 -56 -14 -51 -7 5 -9 2 -6 -8 6 -15 -23 -16 -110 -4 -13 2 -20 0 -15 -4 4 -4 36 -10 71 -12 76 -5 85 5 79 85 l-3 52 -2 -58z"/>
 <path d="M3320 1992 c0 -8 61 -34 67 -29 1 2 -13 11 -32 20 -19 9 -35 13 -35 9z"/>
 <path d="M5200 1988 c0 -4 33 -8 73 -10 l72 -3 3 -34 c2 -18 0 -37 -5 -42 -5 -5 -8 8 -7 29 1 33 1 33 -3 5 -4 -33 -4 -33 -63 -33 -32 0 -61 5 -63 10 -3 6 -4 5 -3 -2 3 -14 135 -29 149 -18 5 4 7 27 5 51 l-3 44 -78 5 c-42 3 -77 2 -77 -2z"/>
 <path d="M6200 1992 c0 -8 61 -34 67 -29 1 2 -13 11 -32 20 -19 9 -35 13 -35 9z"/>
 <path d="M3451 1944 c0 -20 6 -37 17 -45 15 -12 15 -12 5 1 -6 8 -13 29 -16 45 l-4 30 -2 -31z"/>
 <path d="M4160 1960 l-55 -7 58 -1 c32 -1 57 2 57 8 0 6 -1 9 -2 8 -2 -1 -28 -4 -58 -8z"/>
 <path d="M4630 1961 c-53 -6 -55 -7 -58 -38 l-3 -31 75 -4 c42 -2 76 0 76 5 0 4 -31 7 -70 7 -68 0 -70 1 -70 25 0 24 3 25 55 25 30 0 55 5 55 10 0 6 -1 9 -2 8 -2 -1 -28 -4 -58 -7z"/>
 <path d="M5470 1961 c-53 -6 -55 -7 -58 -38 l-3 -31 75 -4 c42 -2 76 0 76 5 0 4 -31 7 -70 7 -68 0 -70 1 -70 25 0 24 3 25 55 25 30 0 55 5 55 10 0 6 -1 9 -2 8 -2 -1 -28 -4 -58 -7z"/>
 <path d="M6331 1944 c0 -20 6 -37 17 -45 15 -12 15 -12 5 1 -6 8 -13 29 -16 45 l-4 30 -2 -31z"/>
 <path d="M3331 1940 c0 -15 -4 -30 -8 -36 -5 -5 -2 -4 5 2 8 6 12 22 9 35 -4 24 -4 24 -6 -1z"/>
 <path d="M6211 1940 c0 -15 -4 -30 -8 -36 -5 -5 -2 -4 5 2 8 6 12 22 9 35 -4 24 -4 24 -6 -1z"/>
 <path d="M402 1925 c-17 -37 -14 -45 4 -12 9 16 14 31 11 33 -2 2 -9 -7 -15 -21z"/>
 <path d="M4480 1921 c0 -7 -5 -9 -11 -5 -8 5 -9 2 -1 -11 9 -18 42 -30 42 -17 -1 13 -30 46 -30 33z"/>
 <path d="M4125 1894 c46 -7 125 -8 125 -1 0 4 -33 6 -72 6 -40 -1 -64 -3 -53 -5z"/>
 <path d="M366 1834 c-9 -26 -16 -52 -15 -58 0 -6 9 13 20 43 10 30 17 56 15 58 -2 2 -11 -17 -20 -43z"/>
 <path d="M2901 1780 c0 -8 4 -24 9 -35 5 -13 9 -14 9 -5 0 8 -4 24 -9 35 -5 13 -9 14 -9 5z"/>
 <path d="M370 1653 c-18 -94 -26 -235 -19 -345 6 -96 28 -228 38 -228 13 1 294 80 298 84 3 3 0 34 -6 69 -14 82 -14 252 0 334 6 35 9 66 6 69 -4 4 -285 83 -298 84 -3 0 -11 -30 -19 -67z"/>
 <path d="M2716 1679 c-76 -21 -141 -40 -143 -43 -3 -3 0 -34 6 -69 6 -35 11 -110 11 -167 0 -57 -5 -132 -11 -167 -6 -35 -9 -66 -6 -69 6 -6 298 -86 302 -82 14 16 35 207 35 317 0 142 -25 322 -44 320 -6 0 -73 -18 -150 -40z"/>
 <path d="M4313 1683 c15 -2 39 -2 55 0 15 2 2 4 -28 4 -30 0 -43 -2 -27 -4z"/>
 <path d="M3414 1425 c0 -143 2 -200 3 -127 2 73 2 190 0 260 -1 70 -3 10 -3 -133z"/>
 <path d="M3628 1508 c-131 -198 -156 -237 -141 -223 6 6 64 91 130 190 133 201 136 205 130 205 -2 0 -56 -78 -119 -172z"/>
 <path d="M3814 1425 c0 -143 2 -200 3 -127 2 73 2 190 0 260 -1 70 -3 10 -3 -133z"/>
 <path d="M3924 1425 c0 -143 2 -200 3 -127 2 73 2 190 0 260 -1 70 -3 10 -3 -133z"/>
 <path d="M3994 1425 c0 -143 2 -200 3 -127 2 73 2 190 0 260 -1 70 -3 10 -3 -133z"/>
 <path d="M4674 1425 c0 -143 2 -200 3 -127 2 73 2 190 0 260 -1 70 -3 10 -3 -133z"/>
 <path d="M4742 1565 l-1 -120 84 90 c47 50 95 104 107 120 21 29 -75 -71 -143 -149 l-34 -39 -6 109 -5 109 -2 -120z"/>
 <path d="M4917 1553 l-118 -125 53 -56 c29 -32 85 -91 123 -132 39 -41 63 -65 55 -53 -8 12 -61 71 -118 132 l-103 110 116 120 c98 102 126 134 113 130 -2 0 -56 -57 -121 -126z"/>
 <path d="M5580 1655 c0 -25 -1 -25 -90 -25 l-90 0 2 -232 3 -233 2 228 3 227 90 0 90 0 0 30 c0 17 -2 30 -5 30 -3 0 -5 -11 -5 -25z"/>
 <path d="M5654 1425 c0 -143 2 -200 3 -127 2 73 2 190 0 260 -1 70 -3 10 -3 -133z"/>
 <path d="M5724 1425 c0 -143 2 -200 3 -127 2 73 2 190 0 260 -1 70 -3 10 -3 -133z"/>
 <path d="M5834 1425 c0 -143 2 -200 3 -127 2 73 2 190 0 260 -1 70 -3 10 -3 -133z"/>
 <path d="M6048 1508 c-131 -198 -156 -237 -141 -223 6 6 64 91 130 190 133 201 136 205 130 205 -2 0 -56 -78 -119 -172z"/>
 <path d="M6234 1425 c0 -143 2 -200 3 -127 2 73 2 190 0 260 -1 70 -3 10 -3 -133z"/>
 <path d="M4179 1638 c-23 -18 -49 -44 -57 -58 -11 -20 -9 -19 9 4 12 16 43 42 68 57 25 16 40 29 34 29 -6 0 -30 -15 -54 -32z"/>
 <path d="M4470 1649 c19 -12 43 -28 53 -37 9 -8 17 -12 17 -9 0 10 -81 67 -94 67 -6 0 5 -10 24 -21z"/>
 <path d="M312 1600 c0 -19 2 -27 5 -17 2 9 2 25 0 35 -3 9 -5 1 -5 -18z"/>
 <path d="M4313 1623 c15 -2 37 -2 50 0 12 2 0 4 -28 4 -27 0 -38 -2 -22 -4z"/>
 <path d="M4230 1598 c-18 -13 -40 -34 -48 -48 -12 -19 -9 -18 14 7 16 17 43 38 59 47 17 8 25 15 19 16 -6 0 -26 -10 -44 -22z"/>
 <path d="M4460 1570 c36 -36 46 -41 78 -37 l37 4 -39 1 c-28 2 -44 9 -58 27 -11 14 -29 30 -40 36 -11 6 -1 -8 22 -31z"/>
 <path d="M3628 1398 c-150 -226 -151 -228 -146 -228 3 0 61 84 129 187 l124 186 5 -189 6 -189 2 203 c1 111 0 202 -1 202 -2 0 -56 -78 -119 -172z"/>
 <path d="M6048 1398 c-150 -226 -151 -228 -146 -228 3 0 61 84 129 187 l124 186 5 -189 6 -189 2 203 c1 111 0 202 -1 202 -2 0 -56 -78 -119 -172z"/>
 <path d="M303 1510 c0 -30 2 -43 4 -27 2 15 2 39 0 55 -2 15 -4 2 -4 -28z"/>
 <path d="M2953 1505 c0 -27 2 -38 4 -22 2 15 2 37 0 50 -2 12 -4 0 -4 -28z"/>
 <path d="M4742 1290 l2 -125 5 112 6 112 98 -110 c53 -61 97 -107 97 -104 0 6 -131 156 -191 220 -19 19 -19 17 -17 -105z"/>
 <path d="M2953 1325 c0 -33 2 -45 4 -27 2 18 2 45 0 60 -2 15 -4 0 -4 -33z"/>
 <path d="M4080 1364 c0 -10 5 -26 10 -34 8 -11 9 -7 4 15 -8 37 -14 45 -14 19z"/>
 <path d="M4179 1303 c14 -26 79 -73 101 -73 8 1 0 7 -18 15 -19 8 -48 29 -64 47 -21 23 -27 26 -19 11z"/>
 <path d="M4467 1282 l-29 -37 30 32 c22 22 42 33 69 36 l38 4 -40 1 c-35 2 -43 -2 -68 -36z"/>
 <path d="M303 1270 c0 -25 2 -35 4 -22 2 12 2 32 0 45 -2 12 -4 2 -4 -23z"/>
 <path d="M4122 1270 c17 -28 93 -90 111 -90 6 0 -9 13 -34 29 -25 15 -56 41 -68 57 -18 23 -20 24 -9 4z"/>
 <path d="M2942 1220 c0 -19 2 -27 5 -17 2 9 2 25 0 35 -3 9 -5 1 -5 -18z"/>
 <path d="M4486 1214 c-26 -19 -44 -34 -39 -34 11 0 93 57 93 65 0 7 2 8 -54 -31z"/>
 <path d="M4318 1223 c12 -2 32 -2 45 0 12 2 2 4 -23 4 -25 0 -35 -2 -22 -4z"/>
 <path d="M4313 1163 c15 -2 39 -2 55 0 15 2 2 4 -28 4 -30 0 -43 -2 -27 -4z"/>
 <path d="M2882 973 c-15 -48 -8 -55 8 -8 7 20 10 38 8 41 -3 2 -10 -13 -16 -33z"/>
 <path d="M2812 805 c-17 -36 -30 -65 -27 -65 7 0 67 121 63 126 -2 2 -18 -26 -36 -61z"/>
 <path d="M475 730 c9 -16 18 -30 21 -30 2 0 -2 14 -11 30 -9 17 -18 30 -21 30 -2 0 2 -13 11 -30z"/>
 <path d="M841 596 l-113 -113 64 -55 c111 -98 268 -188 417 -242 41 -15 75 -25 76 -24 9 9 82 309 77 312 -4 2 -25 9 -47 16 -91 29 -223 104 -316 181 l-45 38 -113 -113z"/>
 <path d="M2270 678 c-85 -73 -234 -159 -325 -188 -22 -7 -43 -14 -47 -16 -5 -3 68 -303 77 -312 5 -5 152 52 220 85 94 47 218 130 283 190 l53 48 -113 112 -113 112 -35 -31z"/>
 <path d="M551 615 c18 -25 40 -51 48 -58 8 -7 -5 14 -28 46 -51 68 -67 77 -20 12z"/>
 <path d="M2675 588 c-26 -35 -39 -55 -28 -45 20 18 87 107 80 107 -2 0 -25 -28 -52 -62z"/>
 <path d="M675 471 c73 -76 205 -181 278 -221 60 -33 45 -21 -61 50 -52 35 -137 103 -190 153 -87 81 -90 83 -27 18z"/>
 <path d="M2560 457 c-36 -34 -85 -79 -110 -100 -34 -29 -30 -27 15 7 54 41 176 156 165 156 -3 0 -34 -28 -70 -63z"/>
 <path d="M2362 296 c-46 -33 -53 -43 -14 -20 19 10 38 25 44 32 15 17 8 14 -30 -12z"/>
 <path d="M2180 195 c-25 -13 -40 -24 -35 -24 6 0 30 11 55 24 25 13 41 24 35 24 -5 0 -30 -11 -55 -24z"/>
 <path d="M1080 185 c25 -13 50 -24 55 -24 6 0 -10 11 -35 24 -25 13 -49 24 -55 24 -5 0 10 -11 35 -24z"/>
 <path d="M1975 120 c-13 -5 -14 -9 -5 -9 8 0 24 4 35 9 13 5 14 9 5 9 -8 0 -24 -4 -35 -9z"/>
 <path d="M1413 83 c9 -2 25 -2 35 0 9 3 1 5 -18 5 -19 0 -27 -2 -17 -5z"/>
 <path d="M1503 73 c15 -2 39 -2 55 0 15 2 2 4 -28 4 -30 0 -43 -2 -27 -4z"/>
 <path d="M1703 73 c15 -2 39 -2 55 0 15 2 2 4 -28 4 -30 0 -43 -2 -27 -4z"/>
 </g>
<g id="layer104" fill="#eb443f" stroke="none">
 <path d="M1483 2723 c9 -2 25 -2 35 0 9 3 1 5 -18 5 -19 0 -27 -2 -17 -5z"/>
 <path d="M1733 2723 c9 -2 25 -2 35 0 9 3 1 5 -18 5 -19 0 -27 -2 -17 -5z"/>
 <path d="M1192 2605 c-146 -56 -307 -152 -412 -244 l-45 -40 111 -112 112 -112 61 51 c71 60 166 114 262 152 38 14 72 29 75 33 4 4 -10 72 -31 152 -29 111 -42 145 -54 145 -9 -1 -44 -12 -79 -25z"/>
 <path d="M1935 2485 c-21 -80 -35 -148 -31 -152 3 -4 37 -19 75 -33 94 -37 184 -89 260 -150 l64 -52 108 108 c60 60 109 112 109 116 0 15 -167 140 -250 187 -86 48 -255 121 -282 121 -11 0 -26 -41 -53 -145z"/>
 <path d="M2560 2345 c35 -36 67 -65 69 -65 3 0 -24 29 -59 65 -35 36 -67 65 -69 65 -3 0 24 -29 59 -65z"/>
 <path d="M639 2293 l-34 -38 38 34 c20 19 37 36 37 38 0 8 -8 0 -41 -34z"/>
 <path d="M1466 2304 c-388 -77 -674 -367 -741 -751 -52 -298 41 -587 257 -803 122 -121 247 -192 418 -241 72 -20 108 -23 230 -23 122 0 158 3 230 23 165 47 281 113 404 230 127 122 215 275 258 447 30 125 30 325 -1 439 -45 167 -136 321 -259 436 -83 79 -133 114 -227 161 -175 88 -388 118 -569 82z m381 -209 c1 -5 -22 -23 -52 -39 -31 -16 -69 -46 -85 -67 -33 -41 -75 -127 -66 -136 2 -3 18 4 35 16 165 117 390 26 423 -172 9 -57 8 -73 -10 -134 -23 -73 -56 -147 -99 -223 -24 -42 -142 -200 -149 -200 -1 0 8 30 22 68 66 180 32 332 -74 332 -60 0 -92 -30 -92 -86 0 -24 7 -61 15 -81 26 -66 44 -212 35 -283 -9 -80 -44 -197 -65 -220 -8 -9 -15 -20 -15 -24 0 -13 -72 -96 -109 -125 l-36 -29 0 162 0 161 -39 80 c-31 65 -54 95 -121 160 -119 113 -211 229 -235 292 -54 143 5 291 140 352 88 40 213 21 277 -41 41 -40 42 -23 4 57 -30 65 -96 132 -148 154 -33 13 -39 22 -26 35 11 11 466 2 470 -9z m309 -510 c3 -25 4 -60 0 -78 -19 -98 -111 -252 -220 -372 -70 -76 -95 -84 -44 -14 52 71 138 202 138 209 0 3 11 22 25 41 29 38 75 178 75 227 0 48 18 39 26 -13z m-987 -179 c18 -22 63 -72 100 -111 87 -92 141 -166 180 -248 39 -82 52 -208 31 -306 -15 -70 -30 -71 -30 -3 -1 26 -8 76 -16 112 -9 36 -18 77 -21 93 -3 15 -9 30 -14 33 -5 3 -9 13 -9 23 0 20 -59 110 -153 235 -63 83 -112 171 -122 221 -5 27 -4 28 7 11 7 -10 28 -37 47 -60z"/>
 <path d="M3874 1965 c0 -49 1 -71 3 -48 2 23 2 64 0 90 -2 26 -3 8 -3 -42z"/>
 <path d="M3960 2043 c-30 -2 -58 -7 -62 -11 -4 -4 22 -5 57 -4 49 3 65 0 65 -10 0 -10 3 -9 10 2 13 21 12 30 -2 28 -7 -1 -38 -3 -68 -5z"/>
 <path d="M4094 1965 c0 -49 1 -71 3 -48 2 23 2 64 0 90 -2 26 -3 8 -3 -42z"/>
 <path d="M4175 2040 l-70 -6 73 -2 c42 -1 72 2 72 8 0 6 -1 9 -2 8 -2 -1 -34 -4 -73 -8z"/>
 <path d="M4339 1972 c-24 -41 -45 -79 -47 -83 -7 -16 31 -2 40 16 8 13 8 16 -2 10 -8 -5 -11 -3 -8 6 3 8 11 13 18 11 8 -2 10 3 6 13 -3 9 -2 13 4 10 10 -6 44 51 36 63 -2 4 4 8 14 8 11 0 16 -6 13 -14 -3 -7 0 -12 7 -10 7 2 15 -3 18 -11 3 -9 0 -11 -8 -6 -7 4 -5 -6 6 -24 10 -17 20 -27 22 -21 2 5 9 7 15 3 10 -6 -20 48 -47 87 -23 32 -44 18 -87 -58z"/>
 <path d="M4554 1965 c0 -49 1 -71 3 -48 2 23 2 64 0 90 -2 26 -3 8 -3 -42z"/>
 <path d="M4643 2043 l-73 -4 2 -37 c1 -37 1 -37 5 -4 l4 32 70 0 c39 0 69 4 69 10 0 6 -1 9 -2 8 -2 -1 -36 -4 -75 -5z"/>
 <path d="M4764 1965 c0 -49 1 -71 3 -48 2 23 2 64 0 90 -2 26 -3 8 -3 -42z"/>
 <path d="M4964 2024 c-3 -11 -3 -45 -1 -75 3 -54 3 -53 5 13 1 37 5 69 10 71 9 6 10 -136 0 -143 -3 -3 31 -4 75 -4 61 1 82 5 83 15 1 10 0 10 -3 2 -11 -32 -18 -7 -18 62 0 69 7 94 18 63 3 -9 4 -9 3 1 -1 10 -22 14 -84 15 -76 1 -83 -1 -88 -20z m146 -59 l0 -65 -60 0 -60 0 0 65 0 65 60 0 60 0 0 -65z"/>
 <path d="M5394 1965 c0 -49 1 -71 3 -48 2 23 2 64 0 90 -2 26 -3 8 -3 -42z"/>
 <path d="M5483 2043 l-73 -4 2 -37 c1 -37 1 -37 5 -4 l4 32 70 0 c39 0 69 4 69 10 0 6 -1 9 -2 8 -2 -1 -36 -4 -75 -5z"/>
 <path d="M5601 1963 c1 -49 3 -80 6 -70 3 12 8 15 16 9 7 -6 41 -12 76 -14 l65 -3 1 49 c0 38 -3 50 -18 55 -17 7 -17 8 2 33 19 24 19 25 2 24 -11 0 -29 -13 -41 -28 -16 -21 -30 -28 -56 -28 -31 0 -34 3 -34 30 0 17 -4 30 -10 30 -6 0 -10 -35 -9 -87z m131 54 c-24 -26 -20 -37 12 -37 12 0 17 -4 11 -8 -5 -4 -10 -20 -10 -37 l0 -30 -60 0 -60 0 0 32 c0 17 -3 29 -7 26 -5 -2 -8 2 -8 9 0 10 11 12 38 10 31 -3 42 2 66 27 17 17 32 31 35 31 2 0 -5 -10 -17 -23z"/>
 <path d="M4818 2033 c23 -2 59 -2 80 0 20 2 1 4 -43 4 -44 0 -61 -2 -37 -4z"/>
 <path d="M4042 1967 c-1 -42 -5 -56 -14 -51 -7 5 -9 2 -6 -8 6 -15 -23 -16 -110 -4 -13 2 -20 0 -15 -4 4 -4 36 -10 71 -12 76 -5 85 5 79 85 l-3 52 -2 -58z"/>
 <path d="M3320 1992 c0 -8 61 -34 67 -29 1 2 -13 11 -32 20 -19 9 -35 13 -35 9z"/>
 <path d="M5200 1988 c0 -4 33 -8 73 -10 l72 -3 3 -34 c2 -18 0 -37 -5 -42 -5 -5 -8 8 -7 29 1 33 1 33 -3 5 -4 -33 -4 -33 -63 -33 -32 0 -61 5 -63 10 -3 6 -4 5 -3 -2 3 -14 135 -29 149 -18 5 4 7 27 5 51 l-3 44 -78 5 c-42 3 -77 2 -77 -2z"/>
 <path d="M6200 1992 c0 -8 61 -34 67 -29 1 2 -13 11 -32 20 -19 9 -35 13 -35 9z"/>
 <path d="M3451 1944 c0 -20 6 -37 17 -45 15 -12 15 -12 5 1 -6 8 -13 29 -16 45 l-4 30 -2 -31z"/>
 <path d="M4160 1960 l-55 -7 58 -1 c32 -1 57 2 57 8 0 6 -1 9 -2 8 -2 -1 -28 -4 -58 -8z"/>
 <path d="M4630 1961 c-53 -6 -55 -7 -58 -38 l-3 -31 75 -4 c42 -2 76 0 76 5 0 4 -31 7 -70 7 -68 0 -70 1 -70 25 0 24 3 25 55 25 30 0 55 5 55 10 0 6 -1 9 -2 8 -2 -1 -28 -4 -58 -7z"/>
 <path d="M5470 1961 c-53 -6 -55 -7 -58 -38 l-3 -31 75 -4 c42 -2 76 0 76 5 0 4 -31 7 -70 7 -68 0 -70 1 -70 25 0 24 3 25 55 25 30 0 55 5 55 10 0 6 -1 9 -2 8 -2 -1 -28 -4 -58 -7z"/>
 <path d="M6331 1944 c0 -20 6 -37 17 -45 15 -12 15 -12 5 1 -6 8 -13 29 -16 45 l-4 30 -2 -31z"/>
 <path d="M3331 1940 c0 -15 -4 -30 -8 -36 -5 -5 -2 -4 5 2 8 6 12 22 9 35 -4 24 -4 24 -6 -1z"/>
 <path d="M6211 1940 c0 -15 -4 -30 -8 -36 -5 -5 -2 -4 5 2 8 6 12 22 9 35 -4 24 -4 24 -6 -1z"/>
 <path d="M4480 1921 c0 -7 -5 -9 -11 -5 -8 5 -9 2 -1 -11 9 -18 42 -30 42 -17 -1 13 -30 46 -30 33z"/>
 <path d="M4125 1894 c46 -7 125 -8 125 -1 0 4 -33 6 -72 6 -40 -1 -64 -3 -53 -5z"/>
 <path d="M386 1712 c-2 -4 -10 -38 -17 -77 -29 -146 -9 -554 27 -549 5 1 73 19 152 40 142 37 144 38 138 63 -3 14 -10 68 -17 118 -11 87 -4 204 17 304 6 25 3 27 -58 42 -34 9 -102 27 -150 41 -49 13 -90 21 -92 18z"/>
 <path d="M2717 1676 l-149 -40 6 -29 c27 -136 27 -290 0 -418 -6 -25 -4 -26 138 -63 79 -21 147 -39 152 -40 35 -4 57 352 32 508 -9 54 -20 104 -24 111 -5 9 -45 1 -155 -29z"/>
 <path d="M4313 1683 c15 -2 39 -2 55 0 15 2 2 4 -28 4 -30 0 -43 -2 -27 -4z"/>
 <path d="M3924 1425 c0 -143 2 -200 3 -127 2 73 2 190 0 260 -1 70 -3 10 -3 -133z"/>
 <path d="M3994 1425 c0 -143 2 -200 3 -127 2 73 2 190 0 260 -1 70 -3 10 -3 -133z"/>
 <path d="M4674 1425 c0 -143 2 -200 3 -127 2 73 2 190 0 260 -1 70 -3 10 -3 -133z"/>
 <path d="M4742 1573 c-1 -62 2 -113 7 -113 5 0 15 8 22 18 13 15 12 16 -3 4 -16 -13 -18 -6 -21 95 l-3 108 -2 -112z"/>
 <path d="M5654 1425 c0 -143 2 -200 3 -127 2 73 2 190 0 260 -1 70 -3 10 -3 -133z"/>
 <path d="M5724 1425 c0 -143 2 -200 3 -127 2 73 2 190 0 260 -1 70 -3 10 -3 -133z"/>
 <path d="M4960 1593 l-65 -68 68 65 c62 60 72 70 64 70 -1 0 -32 -30 -67 -67z"/>
 <path d="M4144 1608 l-29 -33 33 29 c30 28 37 36 29 36 -2 0 -16 -15 -33 -32z"/>
 <path d="M5453 1623 c26 -2 68 -2 95 0 26 2 4 3 -48 3 -52 0 -74 -1 -47 -3z"/>
 <path d="M4845 1568 l-40 -43 43 40 c39 36 47 45 39 45 -2 0 -21 -19 -42 -42z"/>
 <path d="M3732 1549 c-8 -12 -9 -18 -3 -15 7 5 11 -53 14 -181 l2 -188 3 203 c1 111 1 202 -1 202 -1 0 -8 -9 -15 -21z"/>
 <path d="M6152 1549 c-8 -12 -9 -18 -3 -15 7 5 11 -53 14 -181 l2 -188 3 203 c1 111 1 202 -1 202 -1 0 -8 -9 -15 -21z"/>
 <path d="M4489 1537 c5 -5 26 -7 47 -5 l39 3 -47 5 c-26 3 -43 1 -39 -3z"/>
 <path d="M4860 1368 c24 -27 45 -48 47 -48 8 0 0 9 -44 50 l-48 45 45 -47z"/>
 <path d="M4742 1283 c1 -122 6 -108 10 35 2 45 0 82 -4 82 -5 0 -7 -53 -6 -117z"/>
 <path d="M4780 1357 c0 -2 15 -16 33 -33 l32 -29 -29 33 c-28 30 -36 37 -36 29z"/>
 <path d="M2952 1300 c0 -19 2 -27 5 -17 2 9 2 25 0 35 -3 9 -5 1 -5 -18z"/>
 <path d="M4486 1312 c-2 -4 12 -6 32 -4 56 5 62 10 15 11 -23 1 -44 -3 -47 -7z"/>
 <path d="M4980 1238 c41 -45 50 -53 50 -45 0 2 -21 23 -47 47 l-48 45 45 -47z"/>
 <path d="M4120 1267 c0 -2 15 -16 33 -33 l32 -29 -29 33 c-28 30 -36 37 -36 29z"/>
 <path d="M4860 1267 c0 -2 15 -16 33 -33 l32 -29 -29 33 c-28 30 -36 37 -36 29z"/>
 <path d="M4313 1163 c15 -2 39 -2 55 0 15 2 2 4 -28 4 -30 0 -43 -2 -27 -4z"/>
 <path d="M845 590 l-110 -111 40 -34 c64 -56 154 -120 230 -163 73 -41 242 -112 267 -112 11 0 26 41 53 145 21 80 35 148 32 151 -3 4 -42 21 -86 39 -95 38 -171 83 -252 148 -32 26 -60 47 -62 47 -1 0 -52 -50 -112 -110z"/>
 <path d="M2238 652 c-76 -63 -153 -109 -249 -147 -44 -18 -83 -35 -86 -39 -3 -3 11 -71 32 -151 27 -104 42 -145 53 -145 25 0 194 71 267 112 76 43 166 107 230 163 l40 34 -110 111 c-60 60 -112 110 -115 109 -3 0 -30 -22 -62 -47z"/>
 <path d="M2560 453 l-65 -68 68 65 c37 35 67 66 67 67 0 8 -10 -2 -70 -64z"/>
 </g>
<g id="layer105" fill="#9d9d9d" stroke="none">
 <path d="M1483 2723 c9 -2 25 -2 35 0 9 3 1 5 -18 5 -19 0 -27 -2 -17 -5z"/>
 <path d="M1733 2723 c9 -2 25 -2 35 0 9 3 1 5 -18 5 -19 0 -27 -2 -17 -5z"/>
 <path d="M1192 2605 c-146 -56 -307 -152 -412 -244 l-45 -40 111 -112 112 -112 61 51 c71 60 166 114 262 152 38 14 72 29 75 33 4 4 -10 72 -31 152 -29 111 -42 145 -54 145 -9 -1 -44 -12 -79 -25z"/>
 <path d="M1935 2485 c-21 -80 -35 -148 -31 -152 3 -4 37 -19 75 -33 94 -37 184 -89 260 -150 l64 -52 108 108 c60 60 109 112 109 116 0 15 -167 140 -250 187 -86 48 -255 121 -282 121 -11 0 -26 -41 -53 -145z"/>
 <path d="M2560 2345 c35 -36 67 -65 69 -65 3 0 -24 29 -59 65 -35 36 -67 65 -69 65 -3 0 24 -29 59 -65z"/>
 <path d="M639 2293 l-34 -38 38 34 c20 19 37 36 37 38 0 8 -8 0 -41 -34z"/>
 <path d="M1466 2304 c-388 -77 -674 -367 -741 -751 -52 -298 41 -587 257 -803 122 -121 247 -192 418 -241 72 -20 108 -23 230 -23 122 0 158 3 230 23 165 47 281 113 404 230 127 122 215 275 258 447 30 125 30 325 -1 439 -45 167 -136 321 -259 436 -83 79 -133 114 -227 161 -175 88 -388 118 -569 82z m381 -209 c1 -5 -22 -23 -52 -39 -31 -16 -69 -46 -85 -67 -33 -41 -75 -127 -66 -136 2 -3 18 4 35 16 95 68 234 67 326 -3 85 -65 122 -184 90 -292 -21 -74 -70 -186 -104 -239 -27 -42 -142 -195 -146 -195 -2 0 8 33 22 73 63 185 31 327 -75 327 -25 0 -49 -8 -67 -21 -24 -19 -26 -27 -22 -68 2 -25 14 -82 26 -126 42 -149 26 -327 -40 -457 -20 -40 -121 -153 -150 -168 -17 -10 -17 -3 -12 112 10 223 -20 297 -199 479 -132 135 -172 187 -200 261 -67 177 58 367 243 368 72 0 135 -22 176 -62 41 -40 42 -23 4 57 -30 65 -96 132 -148 154 -33 13 -39 22 -26 35 11 11 466 2 470 -9z m307 -496 c10 -50 7 -85 -10 -136 -26 -77 -55 -134 -98 -193 -50 -70 -175 -210 -187 -210 -5 0 29 55 75 123 132 193 196 328 196 416 0 40 16 40 24 0z m-982 -194 c26 -33 67 -80 93 -105 66 -63 152 -182 188 -259 26 -55 32 -81 35 -157 4 -89 -12 -209 -27 -199 -5 2 -11 35 -14 72 -13 162 -64 280 -202 466 -81 111 -135 210 -135 249 0 14 3 11 62 -67z"/>
 <path d="M4554 1965 c0 -49 1 -71 3 -48 2 23 2 64 0 90 -2 26 -3 8 -3 -42z"/>
 <path d="M5394 1965 c0 -49 1 -71 3 -48 2 23 2 64 0 90 -2 26 -3 8 -3 -42z"/>
 <path d="M4359 2009 c-8 -15 -8 -19 0 -15 14 9 14 0 1 -25 -6 -10 -8 -19 -6 -19 3 0 13 14 22 31 10 21 11 29 3 23 -9 -5 -11 -2 -6 9 9 24 0 21 -14 -4z"/>
 <path d="M4572 2000 c0 -19 2 -27 5 -17 2 9 2 25 0 35 -3 9 -5 1 -5 -18z"/>
 <path d="M4963 1965 c0 -38 2 -53 4 -32 2 20 2 52 0 70 -2 17 -4 1 -4 -38z"/>
 <path d="M5113 1965 c0 -38 2 -53 4 -32 2 20 2 52 0 70 -2 17 -4 1 -4 -38z"/>
 <path d="M5412 2000 c0 -19 2 -27 5 -17 2 9 2 25 0 35 -3 9 -5 1 -5 -18z"/>
 <path d="M4043 1965 c0 -33 2 -45 4 -27 2 18 2 45 0 60 -2 15 -4 0 -4 -33z"/>
 <path d="M4983 1965 c0 -33 2 -45 4 -27 2 18 2 45 0 60 -2 15 -4 0 -4 -33z"/>
 <path d="M5345 1935 c0 -29 3 -51 8 -48 4 2 7 24 7 48 0 24 -3 46 -7 48 -5 3 -8 -19 -8 -48z"/>
 <path d="M5333 1935 c0 -22 2 -30 4 -17 2 12 2 30 0 40 -3 9 -5 -1 -4 -23z"/>
 <path d="M3331 1940 c0 -15 -4 -30 -8 -36 -5 -5 -2 -4 5 2 8 6 12 22 9 35 -4 24 -4 24 -6 -1z"/>
 <path d="M3451 1939 c0 -15 7 -33 17 -40 15 -12 16 -12 5 1 -6 8 -13 26 -16 40 l-4 25 -2 -26z"/>
 <path d="M6211 1940 c0 -15 -4 -30 -8 -36 -5 -5 -2 -4 5 2 8 6 12 22 9 35 -4 24 -4 24 -6 -1z"/>
 <path d="M6331 1939 c0 -15 7 -33 17 -40 15 -12 16 -12 5 1 -6 8 -13 26 -16 40 l-4 25 -2 -26z"/>
 <path d="M386 1712 c-2 -4 -10 -38 -17 -77 -29 -146 -9 -554 27 -549 5 1 73 19 152 40 142 37 144 38 138 63 -3 14 -10 68 -17 118 -11 87 -4 204 17 304 6 25 3 27 -58 42 -34 9 -102 27 -150 41 -49 13 -90 21 -92 18z"/>
 <path d="M2717 1676 l-149 -40 6 -29 c27 -136 27 -290 0 -418 -6 -25 -4 -26 138 -63 79 -21 147 -39 152 -40 35 -4 57 352 32 508 -9 54 -20 104 -24 111 -5 9 -45 1 -155 -29z"/>
 <path d="M4313 1683 c15 -2 39 -2 55 0 15 2 2 4 -28 4 -30 0 -43 -2 -27 -4z"/>
 <path d="M3924 1425 c0 -143 2 -200 3 -127 2 73 2 190 0 260 -1 70 -3 10 -3 -133z"/>
 <path d="M3994 1425 c0 -143 2 -200 3 -127 2 73 2 190 0 260 -1 70 -3 10 -3 -133z"/>
 <path d="M4674 1425 c0 -143 2 -200 3 -127 2 73 2 190 0 260 -1 70 -3 10 -3 -133z"/>
 <path d="M4742 1573 c-1 -62 2 -113 7 -113 5 0 15 8 22 18 13 15 12 16 -3 4 -16 -13 -18 -6 -21 95 l-3 108 -2 -112z"/>
 <path d="M5654 1425 c0 -143 2 -200 3 -127 2 73 2 190 0 260 -1 70 -3 10 -3 -133z"/>
 <path d="M5724 1425 c0 -143 2 -200 3 -127 2 73 2 190 0 260 -1 70 -3 10 -3 -133z"/>
 <path d="M4960 1593 l-65 -68 68 65 c62 60 72 70 64 70 -1 0 -32 -30 -67 -67z"/>
 <path d="M4144 1608 l-29 -33 33 29 c30 28 37 36 29 36 -2 0 -16 -15 -33 -32z"/>
 <path d="M5453 1623 c26 -2 68 -2 95 0 26 2 4 3 -48 3 -52 0 -74 -1 -47 -3z"/>
 <path d="M4845 1568 l-40 -43 43 40 c39 36 47 45 39 45 -2 0 -21 -19 -42 -42z"/>
 <path d="M3732 1549 c-8 -12 -9 -18 -3 -15 7 5 11 -53 14 -181 l2 -188 3 203 c1 111 1 202 -1 202 -1 0 -8 -9 -15 -21z"/>
 <path d="M6152 1549 c-8 -12 -9 -18 -3 -15 7 5 11 -53 14 -181 l2 -188 3 203 c1 111 1 202 -1 202 -1 0 -8 -9 -15 -21z"/>
 <path d="M4489 1537 c5 -5 26 -7 47 -5 l39 3 -47 5 c-26 3 -43 1 -39 -3z"/>
 <path d="M4860 1368 c24 -27 45 -48 47 -48 8 0 0 9 -44 50 l-48 45 45 -47z"/>
 <path d="M4742 1283 c1 -122 6 -108 10 35 2 45 0 82 -4 82 -5 0 -7 -53 -6 -117z"/>
 <path d="M4780 1357 c0 -2 15 -16 33 -33 l32 -29 -29 33 c-28 30 -36 37 -36 29z"/>
 <path d="M2952 1300 c0 -19 2 -27 5 -17 2 9 2 25 0 35 -3 9 -5 1 -5 -18z"/>
 <path d="M4486 1312 c-2 -4 12 -6 32 -4 56 5 62 10 15 11 -23 1 -44 -3 -47 -7z"/>
 <path d="M4980 1238 c41 -45 50 -53 50 -45 0 2 -21 23 -47 47 l-48 45 45 -47z"/>
 <path d="M4120 1267 c0 -2 15 -16 33 -33 l32 -29 -29 33 c-28 30 -36 37 -36 29z"/>
 <path d="M4860 1267 c0 -2 15 -16 33 -33 l32 -29 -29 33 c-28 30 -36 37 -36 29z"/>
 <path d="M4313 1163 c15 -2 39 -2 55 0 15 2 2 4 -28 4 -30 0 -43 -2 -27 -4z"/>
 <path d="M845 590 l-110 -111 40 -34 c64 -56 154 -120 230 -163 73 -41 242 -112 267 -112 11 0 26 41 53 145 21 80 35 148 32 151 -3 4 -42 21 -86 39 -95 38 -171 83 -252 148 -32 26 -60 47 -62 47 -1 0 -52 -50 -112 -110z"/>
 <path d="M2238 652 c-76 -63 -153 -109 -249 -147 -44 -18 -83 -35 -86 -39 -3 -3 11 -71 32 -151 27 -104 42 -145 53 -145 25 0 194 71 267 112 76 43 166 107 230 163 l40 34 -110 111 c-60 60 -112 110 -115 109 -3 0 -30 -22 -62 -47z"/>
 <path d="M2560 453 l-65 -68 68 65 c37 35 67 66 67 67 0 8 -10 -2 -70 -64z"/>
 </g>
<g id="layer106" fill="#ff827e" stroke="none">
 <path d="M1179 2596 c-155 -61 -296 -146 -399 -240 l-42 -38 108 -109 c93 -94 111 -107 125 -96 9 6 42 32 73 57 56 46 206 126 279 150 44 14 45 -2 -6 184 -18 66 -36 121 -42 122 -5 2 -48 -12 -96 -30z"/>
 <path d="M1977 2623 c-8 -13 -78 -285 -75 -288 2 -1 35 -15 73 -30 89 -35 212 -107 278 -163 l50 -43 110 109 110 110 -43 38 c-111 101 -270 195 -418 248 -83 29 -79 29 -85 19z"/>
 <path d="M1555 2314 c-166 -24 -256 -51 -363 -110 -268 -147 -441 -410 -474 -720 -29 -278 72 -547 278 -745 86 -82 143 -121 247 -169 138 -63 231 -84 387 -84 156 0 249 21 389 85 417 193 625 682 477 1122 -104 307 -360 535 -676 602 -72 15 -218 26 -265 19z m292 -219 c1 -5 -22 -23 -52 -39 -31 -16 -69 -46 -85 -67 -33 -41 -75 -127 -66 -136 2 -3 18 4 35 16 95 68 234 67 326 -3 85 -65 122 -184 90 -292 -21 -74 -70 -186 -104 -239 -27 -42 -142 -195 -146 -195 -2 0 8 33 22 73 63 185 31 327 -75 327 -25 0 -49 -8 -67 -21 -24 -19 -26 -27 -22 -68 2 -25 14 -82 26 -126 42 -149 26 -327 -40 -457 -20 -40 -121 -153 -150 -168 -17 -10 -17 -3 -12 112 10 223 -20 297 -199 479 -132 135 -172 187 -200 261 -67 177 58 367 243 368 72 0 135 -22 176 -62 41 -40 42 -23 4 57 -33 68 -89 127 -143 150 -37 15 -45 25 -31 39 11 11 466 2 470 -9z m307 -496 c10 -50 7 -85 -10 -136 -26 -77 -55 -134 -98 -193 -50 -70 -175 -210 -187 -210 -5 0 29 55 75 123 132 193 196 328 196 416 0 40 16 40 24 0z m-982 -194 c26 -33 67 -80 93 -105 66 -63 152 -182 188 -259 26 -55 32 -81 35 -157 4 -89 -12 -209 -27 -199 -5 2 -11 35 -14 72 -13 162 -64 280 -202 466 -81 111 -135 210 -135 249 0 14 3 11 62 -67z"/>
 <path d="M4554 1965 c0 -49 1 -71 3 -48 2 23 2 64 0 90 -2 26 -3 8 -3 -42z"/>
 <path d="M5394 1965 c0 -49 1 -71 3 -48 2 23 2 64 0 90 -2 26 -3 8 -3 -42z"/>
 <path d="M4359 2009 c-8 -15 -8 -19 0 -15 14 9 14 0 1 -25 -6 -10 -8 -19 -6 -19 3 0 13 14 22 31 10 21 11 29 3 23 -9 -5 -11 -2 -6 9 9 24 0 21 -14 -4z"/>
 <path d="M4572 2000 c0 -19 2 -27 5 -17 2 9 2 25 0 35 -3 9 -5 1 -5 -18z"/>
 <path d="M4963 1965 c0 -38 2 -53 4 -32 2 20 2 52 0 70 -2 17 -4 1 -4 -38z"/>
 <path d="M5113 1965 c0 -38 2 -53 4 -32 2 20 2 52 0 70 -2 17 -4 1 -4 -38z"/>
 <path d="M5412 2000 c0 -19 2 -27 5 -17 2 9 2 25 0 35 -3 9 -5 1 -5 -18z"/>
 <path d="M4043 1965 c0 -33 2 -45 4 -27 2 18 2 45 0 60 -2 15 -4 0 -4 -33z"/>
 <path d="M4983 1965 c0 -33 2 -45 4 -27 2 18 2 45 0 60 -2 15 -4 0 -4 -33z"/>
 <path d="M5345 1935 c0 -29 3 -51 8 -48 4 2 7 24 7 48 0 24 -3 46 -7 48 -5 3 -8 -19 -8 -48z"/>
 <path d="M5333 1935 c0 -22 2 -30 4 -17 2 12 2 30 0 40 -3 9 -5 -1 -4 -23z"/>
 <path d="M3331 1940 c0 -15 -4 -30 -8 -36 -5 -5 -2 -4 5 2 8 6 12 22 9 35 -4 24 -4 24 -6 -1z"/>
 <path d="M3451 1939 c0 -15 7 -33 17 -40 15 -12 16 -12 5 1 -6 8 -13 26 -16 40 l-4 25 -2 -26z"/>
 <path d="M6211 1940 c0 -15 -4 -30 -8 -36 -5 -5 -2 -4 5 2 8 6 12 22 9 35 -4 24 -4 24 -6 -1z"/>
 <path d="M6331 1939 c0 -15 7 -33 17 -40 15 -12 16 -12 5 1 -6 8 -13 26 -16 40 l-4 25 -2 -26z"/>
 <path d="M380 1673 c-5 -21 -16 -91 -22 -155 -17 -168 10 -429 45 -428 7 1 73 18 147 38 118 33 135 41 132 58 -27 191 -27 237 0 428 3 17 -14 25 -132 58 -74 20 -140 37 -147 38 -7 0 -17 -17 -23 -37z"/>
 <path d="M2705 1671 c-113 -32 -130 -40 -128 -56 2 -11 8 -62 15 -113 12 -88 10 -119 -15 -316 -2 -17 16 -25 133 -58 74 -20 140 -37 147 -38 35 -1 62 260 45 428 -15 145 -27 192 -50 191 -9 -1 -75 -18 -147 -38z"/>
 <path d="M3924 1425 c0 -143 2 -200 3 -127 2 73 2 190 0 260 -1 70 -3 10 -3 -133z"/>
 <path d="M4674 1425 c0 -143 2 -200 3 -127 2 73 2 190 0 260 -1 70 -3 10 -3 -133z"/>
 <path d="M5724 1425 c0 -143 2 -200 3 -127 2 73 2 190 0 260 -1 70 -3 10 -3 -133z"/>
 <path d="M4989 1623 l-34 -38 38 34 c20 19 37 36 37 38 0 8 -8 0 -41 -34z"/>
 <path d="M5453 1623 c26 -2 68 -2 95 0 26 2 4 3 -48 3 -52 0 -74 -1 -47 -3z"/>
 <path d="M3738 1553 c-2 -5 -1 -93 2 -198 l6 -190 2 198 c2 177 0 213 -10 190z"/>
 <path d="M6158 1553 c-2 -5 -1 -93 2 -198 l6 -190 2 198 c2 177 0 213 -10 190z"/>
 <path d="M4489 1537 c5 -5 26 -7 47 -5 l39 3 -47 5 c-26 3 -43 1 -39 -3z"/>
 <path d="M4486 1312 c-2 -4 12 -6 32 -4 56 5 62 10 15 11 -23 1 -44 -3 -47 -7z"/>
 <path d="M847 592 l-108 -109 53 -48 c68 -61 174 -133 263 -177 91 -46 216 -91 225 -81 9 10 83 283 78 288 -2 1 -34 15 -73 30 -88 35 -212 107 -277 163 -27 23 -50 42 -51 42 -2 0 -51 -49 -110 -108z"/>
 <path d="M2274 679 c-51 -57 -237 -166 -336 -198 -21 -7 -38 -15 -38 -18 0 -16 73 -279 79 -286 10 -10 134 35 226 81 89 44 195 116 263 177 l53 48 -108 109 c-59 59 -110 108 -114 108 -3 0 -14 -10 -25 -21z"/>
 </g>
<g id="layer107" fill="#ffc1c0" stroke="none">
 <path d="M1179 2596 c-155 -61 -296 -146 -399 -240 l-42 -38 108 -109 c93 -94 111 -107 125 -96 9 6 42 32 73 57 56 46 206 126 279 150 44 14 45 -2 -6 184 -18 66 -36 121 -42 122 -5 2 -48 -12 -96 -30z"/>
 <path d="M1977 2623 c-8 -13 -78 -285 -75 -288 2 -1 35 -15 73 -30 89 -35 212 -107 278 -163 l50 -43 110 109 110 110 -43 38 c-111 101 -270 195 -418 248 -83 29 -79 29 -85 19z"/>
 <path d="M1555 2314 c-166 -24 -256 -51 -363 -110 -268 -147 -441 -410 -474 -720 -29 -278 72 -547 278 -745 86 -82 143 -121 247 -169 138 -63 231 -84 387 -84 156 0 249 21 389 85 417 193 625 682 477 1122 -104 307 -360 535 -676 602 -72 15 -218 26 -265 19z m292 -219 c1 -5 -22 -23 -52 -39 -31 -16 -69 -45 -85 -66 -29 -37 -74 -129 -67 -137 3 -2 28 11 57 29 50 31 60 33 139 33 76 0 92 -3 133 -27 95 -56 146 -153 135 -257 -7 -67 -62 -211 -108 -284 -35 -55 -147 -207 -153 -207 -2 0 3 21 11 48 57 175 56 261 -5 325 -32 34 -87 37 -126 6 -33 -26 -35 -72 -6 -147 25 -66 40 -207 30 -292 -14 -126 -42 -196 -117 -291 -37 -47 -112 -114 -119 -106 -1 1 3 46 9 100 14 123 0 232 -40 314 -19 39 -64 95 -138 173 -191 198 -225 252 -233 363 -6 82 14 142 67 200 94 104 272 117 369 26 17 -16 32 -28 32 -25 0 3 -10 31 -21 62 -26 69 -89 140 -146 166 -42 19 -50 28 -36 42 11 11 466 2 470 -9z m309 -511 c14 -98 -34 -219 -144 -359 -63 -81 -197 -221 -176 -185 4 8 42 65 84 125 42 61 93 138 114 172 46 77 96 212 96 258 0 51 18 43 26 -11z m-1018 -131 c17 -27 73 -94 126 -151 147 -159 208 -263 225 -382 9 -71 -1 -189 -20 -235 l-13 -30 -3 30 c-25 244 -63 345 -191 512 -86 113 -116 162 -142 238 -29 84 -27 86 18 18z"/>
 <path d="M4554 1965 c0 -49 1 -71 3 -48 2 23 2 64 0 90 -2 26 -3 8 -3 -42z"/>
 <path d="M5394 1965 c0 -49 1 -71 3 -48 2 23 2 64 0 90 -2 26 -3 8 -3 -42z"/>
 <path d="M4963 1965 c0 -38 2 -53 4 -32 2 20 2 52 0 70 -2 17 -4 1 -4 -38z"/>
 <path d="M5113 1965 c0 -38 2 -53 4 -32 2 20 2 52 0 70 -2 17 -4 1 -4 -38z"/>
 <path d="M4043 1965 c0 -33 2 -45 4 -27 2 18 2 45 0 60 -2 15 -4 0 -4 -33z"/>
 <path d="M3331 1935 c0 -12 -5 -26 -11 -33 -5 -7 -3 -6 6 2 9 7 14 22 11 32 -4 17 -5 17 -6 -1z"/>
 <path d="M3451 1934 c0 -12 7 -28 17 -35 15 -12 16 -12 6 1 -7 8 -14 24 -17 35 -4 19 -5 19 -6 -1z"/>
 <path d="M6211 1935 c0 -12 -5 -26 -11 -33 -5 -7 -3 -6 6 2 9 7 14 22 11 32 -4 17 -5 17 -6 -1z"/>
 <path d="M6331 1934 c0 -12 7 -28 17 -35 15 -12 16 -12 6 1 -7 8 -14 24 -17 35 -4 19 -5 19 -6 -1z"/>
 <path d="M380 1673 c-5 -21 -16 -91 -22 -155 -17 -168 10 -429 45 -428 7 1 73 18 147 38 118 33 135 41 132 58 -27 191 -27 237 0 428 3 17 -14 25 -132 58 -74 20 -140 37 -147 38 -7 0 -17 -17 -23 -37z"/>
 <path d="M2705 1671 c-113 -32 -130 -40 -128 -56 2 -11 8 -62 15 -113 12 -88 10 -119 -15 -316 -2 -17 16 -25 133 -58 74 -20 140 -37 147 -38 35 -1 62 260 45 428 -15 145 -27 192 -50 191 -9 -1 -75 -18 -147 -38z"/>
 <path d="M3924 1425 c0 -143 2 -200 3 -127 2 73 2 190 0 260 -1 70 -3 10 -3 -133z"/>
 <path d="M4674 1425 c0 -143 2 -200 3 -127 2 73 2 190 0 260 -1 70 -3 10 -3 -133z"/>
 <path d="M5724 1425 c0 -143 2 -200 3 -127 2 73 2 190 0 260 -1 70 -3 10 -3 -133z"/>
 <path d="M4989 1623 l-34 -38 38 34 c20 19 37 36 37 38 0 8 -8 0 -41 -34z"/>
 <path d="M5453 1623 c26 -2 68 -2 95 0 26 2 4 3 -48 3 -52 0 -74 -1 -47 -3z"/>
 <path d="M3738 1553 c-2 -5 -1 -93 2 -198 l6 -190 2 198 c2 177 0 213 -10 190z"/>
 <path d="M6158 1553 c-2 -5 -1 -93 2 -198 l6 -190 2 198 c2 177 0 213 -10 190z"/>
 <path d="M4489 1537 c5 -5 26 -7 47 -5 l39 3 -47 5 c-26 3 -43 1 -39 -3z"/>
 <path d="M4486 1312 c-2 -4 12 -6 32 -4 56 5 62 10 15 11 -23 1 -44 -3 -47 -7z"/>
 <path d="M847 592 l-108 -109 53 -48 c68 -61 174 -133 263 -177 91 -46 216 -91 225 -81 9 10 83 283 78 288 -2 1 -34 15 -73 30 -88 35 -212 107 -277 163 -27 23 -50 42 -51 42 -2 0 -51 -49 -110 -108z"/>
 <path d="M2274 679 c-51 -57 -237 -166 -336 -198 -21 -7 -38 -15 -38 -18 0 -16 73 -279 79 -286 10 -10 134 35 226 81 89 44 195 116 263 177 l53 48 -108 109 c-59 59 -110 108 -114 108 -3 0 -14 -10 -25 -21z"/>
 </g>
<g id="layer108" fill="#fefefe" stroke="none">
 <path d="M1160 2587 c-156 -64 -315 -163 -392 -244 l-28 -29 108 -107 107 -107 48 42 c69 59 194 131 282 163 41 15 75 30 75 34 -2 28 -79 286 -86 288 -5 1 -56 -17 -114 -40z"/>
 <path d="M1975 2618 c-12 -37 -75 -281 -73 -284 2 -1 34 -14 73 -29 94 -35 181 -85 262 -150 l68 -54 107 106 108 107 -23 25 c-73 80 -281 207 -425 260 -96 36 -91 35 -97 19z"/>
 <path d="M1531 2309 c-275 -32 -513 -177 -661 -402 -106 -160 -151 -311 -152 -512 -2 -240 80 -447 250 -626 106 -114 241 -197 393 -243 369 -113 760 12 992 316 128 169 187 348 187 571 0 377 -230 703 -597 846 -109 43 -287 64 -412 50z m316 -214 c1 -5 -24 -25 -57 -43 -64 -35 -122 -108 -135 -171 l-7 -34 33 25 c138 101 324 54 401 -102 60 -121 21 -270 -128 -490 -112 -166 -133 -183 -95 -78 48 131 45 257 -6 311 -39 40 -105 34 -140 -12 -18 -23 -16 -41 13 -138 37 -121 40 -294 7 -398 -27 -86 -87 -179 -155 -239 -75 -68 -74 -69 -57 64 11 88 -2 245 -22 265 -5 5 -9 16 -9 25 -1 26 -71 113 -195 242 -179 184 -218 277 -173 414 30 93 79 142 171 172 37 12 76 22 86 22 33 0 135 -40 158 -62 34 -32 38 -16 11 44 -35 74 -70 113 -133 144 -54 26 -62 34 -48 48 11 11 476 2 480 -9z m307 -496 c27 -137 -60 -313 -248 -499 -77 -75 -97 -85 -51 -24 14 19 67 96 117 171 94 141 143 248 154 336 8 54 19 61 28 16z m-1012 -146 c18 -27 67 -85 110 -130 94 -100 148 -172 186 -249 47 -94 55 -122 57 -203 3 -74 -19 -206 -34 -216 -5 -2 -11 28 -15 68 -10 109 -45 245 -80 312 -17 33 -70 112 -118 177 -88 116 -95 129 -129 223 -30 82 -24 86 23 18z"/>
 <path d="M4043 1965 c0 -33 2 -45 4 -27 2 18 2 45 0 60 -2 15 -4 0 -4 -33z"/>
 <path d="M386 1693 c-18 -62 -30 -176 -31 -288 0 -122 17 -277 35 -304 5 -10 39 -4 141 24 74 20 139 38 145 40 7 2 7 25 -2 77 -17 93 -17 223 0 316 9 52 9 75 2 78 -19 6 -273 74 -279 74 -3 0 -8 -8 -11 -17z"/>
 <path d="M2720 1674 c-69 -19 -130 -36 -136 -38 -7 -3 -7 -26 2 -78 7 -40 13 -111 13 -158 0 -47 -6 -118 -13 -158 -9 -52 -9 -75 -2 -78 6 -2 71 -20 145 -39 101 -28 136 -33 141 -24 5 6 14 48 21 93 29 174 6 518 -34 515 -7 0 -68 -16 -137 -35z"/>
 <path d="M3738 1553 c-2 -5 -1 -93 2 -198 l6 -190 2 198 c2 177 0 213 -10 190z"/>
 <path d="M6158 1553 c-2 -5 -1 -93 2 -198 l6 -190 2 198 c2 177 0 213 -10 190z"/>
 <path d="M4508 1533 c12 -2 32 -2 45 0 12 2 2 4 -23 4 -25 0 -35 -2 -22 -4z"/>
 <path d="M4508 1313 c12 -2 32 -2 45 0 12 2 2 4 -23 4 -25 0 -35 -2 -22 -4z"/>
 <path d="M846 591 l-108 -108 64 -55 c76 -66 128 -101 228 -156 89 -49 240 -106 250 -95 4 4 22 64 40 133 18 69 35 132 37 141 3 12 -14 23 -71 43 -87 32 -185 89 -272 157 l-60 48 -108 -108z"/>
 <path d="M2265 667 c-72 -62 -195 -135 -278 -167 -45 -18 -83 -33 -85 -35 -4 -4 70 -279 78 -288 11 -12 182 56 274 108 85 50 206 137 243 177 l23 24 -108 107 -108 107 -39 -33z"/>
 </g>

</svg>